<?xml version="1.0" standalone="no"?>
<!DOCTYPE svg PUBLIC "-//W3C//DTD SVG 20010904//EN"
 "http://www.w3.org/TR/2001/REC-SVG-20010904/DTD/svg10.dtd">
<svg version="1.0" xmlns="http://www.w3.org/2000/svg"
 width="963.000000pt" height="1280.000000pt" viewBox="0 0 963.000000 1280.000000"
 preserveAspectRatio="xMidYMid meet">
<metadata>
Created by potrace 1.15, written by Peter Selinger 2001-2017
</metadata>
<g transform="translate(0.000000,1280.000000) scale(0.100000,-0.100000)"
fill="#000000" stroke="none">
<path d="M7035 12788 c-11 -6 -57 -37 -102 -70 -83 -59 -101 -66 -120 -47 -9
9 -14 1 -22 -28 -14 -50 -50 -97 -133 -173 -128 -117 -279 -342 -428 -638 -83
-165 -190 -418 -190 -449 0 -11 38 21 110 92 61 60 110 104 110 98 0 -6 -27
-39 -60 -72 -66 -67 -116 -140 -208 -307 -66 -120 -177 -363 -187 -410 -6 -28
-6 -28 9 -10 31 39 23 8 -35 -124 -100 -227 -203 -491 -305 -785 -111 -320
-151 -452 -161 -536 -9 -71 -27 -78 -31 -12 -6 93 59 326 253 908 74 222 141
430 149 464 8 34 23 69 34 79 11 9 49 87 85 172 82 198 79 190 62 190 -18 0
-132 -227 -195 -387 -24 -62 -45 -111 -47 -110 -1 2 13 82 32 178 41 206 45
293 15 309 -28 15 -25 39 11 94 32 47 32 69 2 50 -22 -14 -62 -94 -124 -246
-28 -71 -54 -128 -57 -128 -3 0 -2 55 1 123 5 97 12 143 37 222 38 123 75 305
90 445 21 200 31 260 49 302 10 24 21 59 25 78 6 34 6 35 -12 15 -10 -11 -60
-66 -111 -122 l-92 -102 -35 -202 c-42 -247 -89 -459 -116 -519 -13 -31 -22
-84 -29 -170 -9 -121 -47 -356 -56 -346 -8 7 16 479 26 514 5 17 6 32 1 32
-24 0 -200 -530 -200 -601 1 -32 2 -33 15 -15 8 10 26 55 41 100 15 45 29 86
33 91 20 35 49 -535 33 -667 -10 -75 -51 -207 -73 -232 -15 -17 -22 114 -15
304 8 243 -9 387 -44 365 -7 -4 -24 -61 -35 -123 -4 -18 -11 -30 -16 -26 -16
10 -39 63 -49 114 -5 27 -26 84 -46 126 l-36 76 46 47 c96 98 132 240 123 491
-6 168 -19 231 -69 337 -28 60 -30 71 -27 156 3 77 2 92 -11 92 -8 0 -19 -10
-25 -22 -11 -26 -25 -30 -25 -9 0 19 -37 63 -45 54 -4 -4 1 -37 10 -74 18 -74
16 -114 -15 -229 -34 -127 -50 -236 -50 -333 0 -52 -2 -93 -5 -90 -3 3 -30
100 -60 214 -63 246 -101 371 -116 380 -8 4 -9 -4 -4 -25 4 -20 3 -31 -4 -31
-17 0 -33 51 -27 87 6 40 -62 183 -154 323 -85 130 -240 283 -338 334 -125 65
-220 57 -266 -23 -28 -48 -34 -181 -12 -236 25 -59 36 -29 34 90 -3 113 8 145
48 145 34 0 109 -40 232 -122 120 -80 149 -94 112 -54 -29 33 -182 136 -253
172 -58 30 -57 41 2 21 104 -36 291 -177 291 -219 0 -11 25 -48 56 -81 59 -65
140 -215 125 -230 -5 -5 -72 19 -156 57 -192 87 -295 114 -295 76 0 -6 15 -17
33 -24 154 -67 168 -76 258 -163 140 -134 218 -255 219 -335 0 -45 -7 -46 -61
-12 -60 37 -61 20 -2 -34 62 -58 96 -103 157 -209 26 -46 52 -86 58 -89 6 -4
17 1 25 11 12 18 13 17 13 -8 0 -49 -30 -33 -151 79 -139 130 -373 243 -537
260 -84 8 -108 21 -137 70 -30 50 -38 56 -29 17 6 -22 4 -25 -10 -20 -9 4 -24
10 -33 13 -10 4 11 -23 47 -60 44 -45 88 -78 136 -102 93 -47 235 -167 468
-394 218 -214 336 -349 336 -385 0 -14 -4 -25 -9 -25 -13 0 -246 144 -311 193
-30 22 -80 62 -110 87 -109 93 -294 217 -351 235 -21 7 -22 6 -11 -8 8 -9 53
-43 100 -75 84 -58 135 -102 116 -102 -9 0 -108 66 -306 204 -93 64 -185 113
-194 103 -2 -2 15 -17 38 -32 63 -42 229 -167 341 -259 74 -60 119 -107 181
-190 97 -130 246 -351 246 -365 0 -6 -8 -7 -17 -4 -16 6 -16 4 1 -22 11 -17
47 -64 81 -106 115 -141 163 -223 189 -326 31 -117 17 -122 -54 -20 -28 39
-102 153 -163 252 -85 136 -129 197 -183 250 -52 51 -85 95 -120 160 -72 135
-115 195 -196 270 -158 147 -280 205 -432 205 l-91 0 96 -97 c53 -54 117 -124
143 -156 42 -52 176 -252 176 -262 0 -7 -335 206 -355 226 -17 17 -18 19 -2
19 21 0 21 9 2 34 -8 11 -15 30 -15 43 0 90 -190 263 -405 370 -132 66 -260
113 -230 84 6 -5 68 -41 138 -80 166 -92 268 -161 341 -230 52 -50 96 -111 81
-111 -3 0 -74 49 -158 108 -285 203 -411 282 -425 267 -9 -9 80 -89 254 -227
78 -62 141 -114 140 -116 -10 -10 -468 181 -486 203 -7 8 -9 19 -5 25 12 20
62 10 100 -20 44 -35 65 -38 65 -9 0 97 -518 309 -857 351 -74 9 -158 9 -367
0 -277 -13 -393 -24 -427 -43 -54 -29 30 -36 230 -20 l104 9 206 -102 c256
-127 401 -190 479 -210 76 -20 173 -20 304 -1 l103 16 285 -134 c315 -148 747
-393 728 -413 -2 -2 -40 5 -84 15 -95 23 -224 45 -399 68 -157 21 -567 25
-586 6 -14 -14 48 -27 201 -43 58 -6 154 -21 213 -35 110 -25 233 -73 209 -82
-7 -3 -86 0 -175 6 -201 14 -405 15 -392 2 13 -12 131 -27 320 -41 154 -11
420 -46 439 -57 22 -14 -55 -25 -204 -30 -191 -7 -267 6 -503 84 -93 30 -171
52 -174 50 -27 -28 250 -149 418 -183 99 -20 320 -15 459 10 158 29 256 19
342 -36 47 -30 76 -31 60 -2 -5 8 -26 26 -48 39 l-39 24 66 1 c57 0 72 -4 113
-31 51 -34 136 -131 136 -156 0 -13 -7 -14 -37 -9 -21 4 -76 14 -123 22 -104
18 -410 31 -410 17 0 -18 344 -197 525 -273 44 -19 103 -50 130 -69 67 -46
282 -219 291 -233 11 -17 -72 32 -194 113 -362 243 -745 356 -1442 424 -226
22 -741 31 -906 16 -270 -26 -614 -97 -802 -167 -212 -79 -321 -146 -479 -296
-60 -56 -160 -145 -223 -198 -131 -111 -249 -231 -367 -373 -97 -117 -135
-183 -114 -197 24 -14 47 5 101 84 132 197 360 421 615 606 98 70 300 179 312
167 30 -31 -393 -413 -775 -701 -56 -42 -102 -81 -102 -87 0 -14 58 -11 94 6
116 55 569 447 779 673 71 76 136 176 123 189 -2 3 -20 -6 -38 -20 -18 -13
-49 -29 -68 -35 -102 -29 -178 -56 -233 -83 -33 -16 -62 -27 -64 -25 -6 6 87
80 152 121 83 53 206 105 391 164 175 57 308 85 331 72 12 -6 -1 -19 -54 -54
-130 -87 -441 -428 -503 -551 -24 -49 -13 -66 39 -66 104 0 261 116 591 434
96 92 196 185 222 204 27 20 48 40 48 43 0 4 -12 9 -28 11 -25 4 -24 5 13 16
53 15 204 32 285 31 l65 0 -39 -22 c-118 -68 -256 -167 -319 -230 -77 -77
-187 -230 -187 -260 0 -30 33 -4 111 88 80 95 179 182 314 273 50 33 116 79
149 101 49 34 67 41 105 40 94 -1 93 -7 -10 -98 -144 -127 -286 -231 -369
-268 -128 -58 -145 -68 -140 -78 3 -6 30 -10 61 -10 73 0 187 56 318 154 180
137 408 215 570 196 101 -11 102 -14 26 -54 -60 -30 -66 -36 -44 -39 14 -2 59
4 100 13 159 34 175 36 205 24 28 -11 28 -11 8 -19 -12 -5 -86 -20 -165 -35
-79 -14 -198 -44 -264 -66 -235 -78 -518 -237 -740 -416 -155 -125 -178 -161
-66 -103 73 38 145 49 327 50 252 0 448 30 559 85 39 19 144 87 235 150 291
204 368 240 452 216 23 -7 60 -24 81 -38 20 -14 40 -23 44 -19 9 8 -33 52 -74
77 -70 43 -15 66 80 34 52 -18 207 -104 207 -115 0 -5 -24 -11 -52 -15 -206
-26 -547 -148 -579 -206 -12 -23 6 -33 85 -48 151 -28 389 -10 723 55 122 24
134 24 160 10 15 -9 40 -21 56 -28 15 -7 27 -16 27 -20 0 -17 -280 -146 -540
-250 -223 -89 -275 -126 -243 -177 26 -41 96 -22 324 84 200 95 373 166 507
208 138 45 159 49 167 37 3 -5 20 -10 36 -10 23 0 30 -4 27 -16 -8 -44 -133
-94 -232 -94 -36 0 -67 -4 -71 -9 -12 -20 40 -35 110 -33 39 1 87 0 107 -4
l37 -6 -58 -69 c-32 -38 -72 -98 -89 -134 -26 -53 -44 -75 -104 -122 -40 -31
-127 -112 -193 -179 -66 -67 -135 -129 -152 -138 -35 -18 -60 -59 -88 -146 -9
-30 -72 -172 -140 -315 -67 -143 -138 -300 -158 -350 -164 -415 -160 -401
-133 -454 21 -40 41 -54 54 -39 5 7 80 152 166 323 86 170 159 311 163 315 3
3 3 -40 0 -95 -10 -194 -71 -493 -84 -417 -3 12 -10 22 -18 22 -17 0 -45 -44
-45 -71 0 -12 -8 -23 -20 -26 -15 -4 -18 -11 -13 -33 3 -16 -2 -97 -12 -182
-18 -162 -17 -219 2 -225 17 -6 22 19 33 192 6 88 14 173 18 189 11 39 32 46
32 11 0 -24 2 -26 17 -14 15 13 16 2 10 -156 -4 -93 -9 -190 -12 -215 l-5 -45
12 38 c7 22 16 35 21 31 4 -4 7 -179 8 -388 1 -560 13 -1074 26 -1087 7 -7 13
1 18 28 4 21 10 344 14 718 5 521 10 685 20 703 12 23 17 92 20 296 0 55 3 97
5 95 3 -2 16 -114 30 -249 15 -135 35 -288 45 -340 11 -52 23 -152 27 -222 4
-75 11 -128 17 -128 15 0 1 363 -17 428 -8 29 -20 128 -26 220 -19 296 -31
425 -42 468 -10 36 -8 61 15 171 15 70 27 133 27 138 -1 21 -25 -33 -52 -115
l-27 -85 5 80 c15 224 65 480 124 637 23 62 59 98 96 98 31 0 30 -7 -10 -98
-18 -43 -41 -102 -51 -132 -10 -30 -25 -63 -33 -73 -14 -15 -16 -56 -17 -275
0 -228 2 -261 18 -289 23 -43 51 -42 92 1 69 74 90 270 61 571 -19 198 -14
232 54 371 40 83 127 210 137 201 2 -3 -2 -38 -11 -79 -35 -160 -46 -278 -45
-475 1 -216 9 -310 27 -322 24 -14 32 -121 31 -381 -2 -222 2 -290 20 -420 11
-85 21 -177 21 -204 0 -34 5 -52 17 -61 9 -7 22 -28 28 -46 16 -48 40 -49 55
-3 15 43 10 94 -23 269 -30 154 -51 354 -42 395 4 17 13 30 20 30 19 0 34 53
42 147 3 46 10 83 14 83 17 0 42 -67 49 -133 9 -78 30 -110 69 -105 25 3 26 5
24 68 -9 351 -8 364 10 397 10 19 17 53 17 83 0 69 22 62 32 -9 10 -65 26 -97
95 -188 89 -116 156 -136 298 -87 41 14 79 23 84 19 19 -11 33 -89 30 -170 -2
-45 1 -89 8 -100 16 -30 51 -189 64 -295 13 -104 6 -804 -11 -1135 -5 -99 -14
-641 -20 -1205 -12 -1280 -22 -1632 -57 -1995 -21 -216 -26 -329 -25 -495 1
-161 -5 -283 -23 -483 -14 -148 -27 -272 -29 -276 -3 -4 -16 -113 -31 -242
-47 -434 -78 -614 -137 -797 -37 -116 -69 -157 -123 -155 -20 1 -42 6 -48 12
-19 19 -56 12 -99 -19 -22 -17 -59 -35 -80 -41 -33 -9 -42 -7 -65 11 -36 28
-112 27 -164 -2 -22 -12 -39 -26 -39 -31 0 -4 16 -23 35 -41 19 -19 35 -43 35
-55 0 -32 18 -61 38 -61 10 0 33 11 52 25 49 36 82 33 129 -15 46 -46 60 -49
98 -16 25 22 28 31 30 91 1 37 4 69 7 72 3 3 22 -5 43 -18 32 -19 56 -24 148
-29 101 -5 110 -7 111 -25 1 -11 2 -26 3 -33 2 -20 92 -72 125 -72 21 0 40 11
68 41 39 41 41 41 78 30 51 -15 80 -14 80 4 0 8 -22 48 -49 90 -28 42 -53 85
-56 96 -10 32 -47 20 -70 -23 -19 -36 -19 -38 -1 -69 18 -30 18 -31 0 -27 -29
5 -54 65 -54 130 0 50 -3 60 -24 73 -14 9 -27 30 -30 48 -3 18 -15 40 -26 50
-25 21 -27 100 -5 173 8 27 22 123 30 214 8 91 19 181 25 200 9 31 18 130 37
419 5 84 5 85 23 61 l18 -24 12 44 c6 25 21 55 33 68 21 23 22 27 22 495 0
260 4 478 9 486 7 11 10 11 17 0 31 -48 63 163 43 283 -4 21 -9 38 -13 38 -3
0 -15 -24 -25 -52 -10 -29 -21 -47 -23 -41 -6 18 14 247 28 316 7 31 16 57 20
57 5 0 9 -33 9 -74 0 -94 15 -107 25 -20 l7 65 41 -6 c23 -4 44 -9 46 -11 25
-23 26 -394 1 -394 -4 0 -12 15 -18 33 -10 31 -10 31 -11 -18 -1 -39 4 -54 19
-68 11 -9 20 -23 20 -31 0 -8 12 -21 27 -28 34 -16 41 -43 18 -68 -27 -29 -12
-50 35 -50 38 0 40 -1 40 -31 l0 -32 -85 7 -85 7 1 -88 c0 -48 4 -110 7 -138
l7 -50 45 0 c44 0 45 -1 48 -35 4 -42 -18 -259 -27 -264 -3 -2 -4 40 -3 93 3
78 1 100 -11 110 -28 23 -37 -21 -44 -224 -3 -108 -10 -192 -14 -188 -12 12
-38 217 -54 433 -15 193 -27 270 -45 270 -38 0 -12 -491 36 -663 29 -106 68
-404 51 -387 -14 13 -49 185 -54 262 -3 49 -9 88 -13 88 -15 0 -25 -299 -14
-383 7 -51 24 -54 24 -6 0 18 4 28 10 24 6 -3 10 -17 10 -31 0 -32 26 -94 39
-94 6 0 11 20 11 45 0 32 5 47 15 52 21 7 32 -4 17 -19 -17 -17 -15 -58 3 -58
22 0 34 -32 41 -112 7 -81 -5 -84 -26 -6 -7 26 -20 54 -30 63 -17 15 -19 15
-26 -7 -11 -33 -7 -393 6 -523 28 -277 25 -325 -19 -325 -26 0 -40 20 -50 74
-14 77 -23 67 -19 -22 2 -47 8 -86 15 -90 6 -4 13 -18 14 -32 3 -15 12 -26 24
-29 11 -2 26 -12 33 -22 7 -11 29 -26 49 -34 42 -18 39 -32 -11 -65 l-38 -25
53 -25 c46 -21 68 -25 154 -25 97 0 101 -1 129 -29 l28 -29 122 6 c66 3 134
10 149 16 16 6 57 11 91 11 69 0 92 14 81 50 -9 28 1 25 42 -10 35 -31 51 -35
143 -31 90 4 111 15 154 81 40 62 67 79 59 36 -4 -18 3 -28 31 -45 20 -13 36
-27 36 -32 0 -4 14 -16 30 -24 27 -14 42 -14 111 -4 44 6 83 17 85 23 2 6 -6
43 -20 81 -22 64 -28 72 -72 97 -27 15 -73 33 -102 39 -63 15 -96 2 -175 -64
-56 -47 -93 -52 -135 -19 -32 26 -57 39 -94 46 -17 4 -28 14 -30 27 -2 15 -32
38 -98 76 -52 30 -104 63 -115 73 -29 27 -103 42 -148 29 -20 -5 -37 -14 -37
-19 0 -6 -6 -10 -14 -10 -32 0 -52 116 -66 373 -7 143 -14 200 -30 248 -14 40
-18 65 -11 72 6 6 14 2 23 -12 7 -11 16 -21 20 -21 15 0 8 37 -11 54 -29 26
-31 111 -22 870 l9 698 -24 113 c-44 212 -57 391 -94 1250 -5 121 -12 452 -15
735 -6 485 -11 595 -34 765 -6 39 -15 210 -21 380 -6 171 -15 393 -20 494 -8
155 -7 190 6 225 33 89 33 93 13 187 -20 99 -21 117 -23 434 -2 380 1 473 14
504 10 25 9 41 -5 96 -21 86 -13 133 31 186 38 46 36 55 -17 117 -16 18 -29
37 -29 43 0 24 64 200 76 210 11 9 14 7 14 -9 0 -11 7 -22 15 -26 20 -7 20
-46 -1 -46 -23 0 -45 -65 -42 -123 3 -45 6 -52 25 -55 24 -3 26 2 37 82 7 54
21 65 47 39 24 -23 38 -82 39 -159 0 -32 5 -56 15 -64 12 -10 17 -5 32 27 17
36 21 38 72 43 38 4 58 12 71 28 25 30 33 98 20 178 -10 64 -21 95 -80 231
-24 57 -22 83 9 83 54 0 23 91 -41 120 -72 33 -188 23 -188 -15 0 -18 -31 -20
-48 -3 -19 19 -14 37 13 44 21 5 25 12 25 44 0 80 157 257 307 345 176 102
441 151 544 99 63 -32 213 -274 170 -274 -6 0 -67 53 -135 119 -109 105 -158
142 -171 129 -10 -9 39 -89 90 -149 30 -35 80 -93 111 -129 60 -70 143 -229
189 -362 15 -43 31 -78 36 -78 14 0 24 70 23 165 0 74 -7 112 -38 215 -47 158
-80 219 -168 315 -39 42 -68 78 -66 81 9 8 171 -54 287 -110 109 -52 116 -57
169 -128 89 -118 114 -194 60 -186 l-23 3 2 -165 c2 -115 -1 -160 -8 -148 -19
34 -47 165 -64 302 -17 142 -29 186 -51 186 -18 0 -24 -25 -24 -103 0 -158 41
-419 83 -522 13 -33 19 -72 19 -114 -1 -71 2 -71 53 14 80 133 95 265 49 418
-27 85 -26 120 1 83 32 -43 101 -388 112 -552 6 -106 -4 -139 -27 -84 -7 17
-17 30 -23 30 -15 0 -1 -123 18 -159 43 -83 49 -600 9 -721 -8 -23 -71 182
-88 285 -9 49 -20 175 -26 280 -6 104 -14 193 -19 198 -39 39 -52 -374 -18
-548 10 -49 29 -114 43 -144 13 -29 24 -64 24 -77 0 -16 6 -24 18 -24 10 0 23
-5 30 -12 18 -18 15 -98 -7 -167 -10 -34 -15 -61 -11 -61 17 0 82 87 113 150
l32 65 -5 215 c-8 335 -6 771 4 815 l8 40 43 -123 c69 -197 151 -352 187 -352
19 0 0 163 -36 302 -44 169 -102 327 -216 578 -49 109 -90 203 -90 207 0 11
-124 131 -176 171 -22 17 -53 34 -70 38 -35 9 -114 61 -114 76 0 39 256 -78
355 -162 33 -27 65 -48 71 -46 7 3 22 -30 38 -82 14 -48 42 -140 61 -205 53
-175 98 -257 144 -257 6 0 2 15 -8 33 -10 17 -21 52 -24 77 -3 25 -22 96 -42
159 -19 63 -33 116 -30 119 9 9 104 -202 140 -313 36 -108 102 -362 125 -480
17 -85 38 -131 52 -117 7 7 11 73 11 199 1 171 -2 196 -25 283 -47 172 -141
364 -238 486 -78 99 -212 188 -440 293 -218 101 -318 124 -545 124 -205 0
-321 -17 -487 -73 -64 -22 -120 -40 -124 -40 -23 0 42 46 120 84 145 72 185
79 430 73 251 -5 306 -17 572 -122 237 -94 415 -182 514 -255 98 -72 324 -296
423 -420 91 -113 204 -283 265 -400 99 -187 291 -707 356 -964 30 -117 46
-143 45 -71 0 28 -4 74 -8 103 -4 28 -6 52 -4 52 2 0 24 -33 49 -72 90 -141
264 -288 342 -288 47 0 38 17 -37 67 -126 83 -152 123 -171 262 -21 158 -74
263 -215 426 -102 118 -132 168 -181 295 -139 362 -377 685 -684 930 -124 98
-183 150 -173 150 23 0 117 -31 137 -44 22 -14 25 -13 47 10 12 13 33 24 47
24 41 0 88 -29 103 -63 9 -21 41 -50 95 -87 45 -30 106 -76 136 -102 91 -78
166 -188 128 -188 -5 0 -66 38 -134 84 -68 46 -134 89 -147 96 -50 24 150
-158 234 -214 89 -59 182 -102 191 -87 3 4 -19 32 -49 61 -29 29 -56 65 -60
79 -10 41 -70 142 -113 191 -24 27 -71 62 -119 87 -91 49 -133 86 -133 118 0
13 -7 26 -16 29 -11 4 -14 13 -10 29 5 22 2 23 -42 23 -35 0 -78 14 -167 53
-238 105 -335 142 -360 139 -21 -2 -1 -16 97 -67 149 -78 198 -108 198 -121 0
-18 -24 -10 -139 45 -62 30 -152 67 -200 81 -47 15 -125 46 -174 70 -120 61
-225 101 -326 127 -71 17 -116 21 -251 21 -247 0 -370 -29 -592 -140 -60 -30
-108 -49 -108 -43 0 6 39 50 88 98 201 201 679 496 955 590 l97 33 33 -24
c111 -85 310 -128 596 -128 l129 0 47 -52 c71 -81 109 -167 114 -255 2 -40 7
-73 11 -73 20 0 33 35 32 84 -6 241 -318 518 -630 561 -83 11 -175 -2 -219
-32 -25 -17 -54 -27 -88 -28 -68 -4 -158 -40 -348 -139 -89 -46 -180 -89 -202
-96 -22 -7 -57 -21 -78 -32 -36 -18 -38 -18 -35 -2 2 10 29 27 68 43 36 15 92
44 125 65 93 60 271 144 360 170 44 13 168 46 275 72 173 43 207 49 305 49
106 0 113 -1 185 -36 80 -38 240 -152 240 -170 0 -6 -27 4 -60 22 -32 18 -63
30 -67 25 -11 -11 44 -55 121 -96 63 -34 66 -37 80 -90 l14 -55 1 63 c2 112
-39 170 -191 273 -47 32 -89 63 -93 69 -7 11 74 12 225 1 92 -7 93 -7 45 -15
-84 -13 -83 -17 10 -41 174 -45 284 -103 386 -204 89 -90 188 -238 174 -261
-9 -14 -71 14 -134 62 -30 23 -134 117 -232 210 -98 92 -180 164 -183 159 -11
-18 79 -135 193 -251 174 -177 300 -251 425 -250 l51 1 -35 17 c-32 15 -38 26
-66 109 -44 135 -102 211 -257 336 -52 42 -60 67 -23 67 74 0 412 -152 565
-254 181 -121 558 -467 671 -618 60 -80 135 -222 146 -278 11 -51 -18 -36
-102 53 -91 96 -176 211 -230 312 -38 71 -71 115 -86 115 -4 0 -8 -22 -8 -50
0 -37 -5 -55 -21 -71 -30 -30 -43 -19 -51 45 -10 81 -49 146 -153 254 -124
131 -352 312 -392 312 -28 0 -10 -20 85 -96 130 -104 324 -295 369 -362 45
-68 78 -151 65 -164 -32 -32 -237 177 -361 366 -28 43 -51 83 -51 88 0 24 -43
68 -66 68 -13 0 -24 -5 -24 -10 0 -18 30 -70 103 -180 154 -231 245 -329 342
-366 41 -15 53 -16 115 -4 82 16 78 18 150 -88 75 -108 165 -215 255 -300 112
-107 135 -90 95 69 -50 193 -131 345 -278 519 -56 66 -72 96 -92 169 -15 57
-104 148 -215 221 -123 80 -406 212 -422 196 -5 -5 71 -51 251 -151 178 -99
222 -127 270 -173 52 -49 96 -110 96 -134 0 -17 -2 -17 -35 -4 -54 23 -162 96
-245 166 -154 130 -348 242 -580 335 -110 44 -127 54 -142 83 -9 19 -24 43
-35 54 -49 55 -195 96 -368 105 -133 6 -120 9 -364 -86 -104 -41 -269 -87
-277 -78 -11 11 68 59 106 64 34 5 38 8 28 20 -13 16 -7 23 72 85 61 47 23 43
-82 -11 -57 -28 -109 -51 -115 -51 -19 0 -16 13 6 27 29 18 74 118 67 147 -7
30 -104 96 -183 126 -180 67 -449 71 -662 10 -45 -13 -40 5 20 62 92 90 270
190 419 237 36 11 115 27 175 36 123 17 356 35 368 28 5 -3 1 -11 -9 -17 -16
-12 -15 -13 5 -19 12 -3 50 -1 84 4 142 20 288 4 457 -52 169 -55 394 -173
473 -247 63 -59 24 -47 -224 68 -206 97 -324 142 -362 138 -50 -5 -44 -26 15
-53 72 -32 34 -32 -78 1 -302 90 -613 107 -896 50 -138 -28 -249 -64 -256 -83
-6 -19 23 -16 140 12 148 35 294 49 528 49 160 1 230 -3 318 -18 61 -11 112
-23 112 -27 0 -23 -482 -33 -719 -15 -208 16 -91 -28 159 -59 160 -19 345 -19
518 1 160 19 199 15 254 -21 l40 -27 -26 34 c-29 39 -33 58 -12 58 52 0 427
-194 488 -252 23 -22 57 -42 81 -48 23 -6 121 -36 217 -66 171 -53 294 -83
336 -84 22 0 74 35 74 49 0 5 -28 11 -62 14 -113 11 -376 112 -446 172 -31 26
-112 127 -112 139 0 3 35 -12 78 -33 83 -42 158 -74 467 -201 250 -103 261
-109 341 -176 36 -31 68 -53 71 -50 10 10 -39 76 -97 129 -113 102 -251 191
-444 285 -72 36 -153 62 -215 69 -70 8 -62 -7 21 -37 124 -45 435 -209 411
-217 -41 -14 -513 221 -852 424 -91 54 -410 147 -566 165 -191 21 -666 -7
-801 -47 -94 -28 -196 -75 -359 -165 -186 -103 -241 -141 -257 -175 -6 -13
-24 -29 -41 -36 -61 -25 -224 -157 -432 -348 -60 -55 -113 -101 -117 -101 -14
0 13 65 48 118 20 30 82 102 138 161 157 162 266 319 311 446 24 67 38 81 91
94 49 13 54 22 22 43 -13 9 -18 19 -14 27 4 6 49 46 99 87 51 42 146 128 211
192 117 115 119 118 120 164 1 25 -2 49 -6 53 -4 4 -24 -11 -45 -32 -33 -34
-46 -41 -93 -46 -87 -10 -222 -82 -314 -168 -84 -79 -217 -239 -280 -336 -37
-59 -56 -77 -56 -53 0 40 137 263 287 471 165 226 286 359 362 399 22 11 23
11 18 -9 -7 -30 14 -27 124 15 111 43 317 92 414 99 l70 5 -60 -29 c-33 -16
-152 -61 -265 -101 -219 -77 -290 -107 -290 -121 0 -18 53 -8 197 37 82 25
249 77 373 114 341 103 411 131 424 167 13 34 -12 35 -109 4 -88 -29 -111 -32
-248 -34 -139 -3 -167 -7 -326 -46 -96 -23 -181 -41 -190 -39 -9 2 7 18 42 41
66 44 92 77 82 107 -8 26 -35 26 -35 0 0 -24 -64 -90 -88 -90 -12 1 -6 10 21
31 36 30 47 49 28 49 -17 0 -71 -61 -71 -81 0 -13 -7 -19 -21 -19 -27 0 -52
-14 -117 -67 -30 -24 -57 -42 -59 -39 -6 6 61 88 97 121 71 63 210 310 210
372 0 79 22 166 49 192 14 14 26 29 27 34 1 4 2 11 3 17 0 5 42 52 92 105 90
93 104 115 64 93z m-338 -384 c19 -51 -101 -319 -233 -515 -63 -95 -227 -272
-292 -316 -29 -20 -44 -7 -17 15 35 29 60 71 199 336 146 277 240 431 288 471
34 29 46 31 55 9z m-1108 -584 c-54 -299 -74 -394 -105 -490 -19 -58 -39 -109
-44 -114 -24 -24 -21 16 13 152 20 81 48 210 62 288 14 78 31 159 39 182 14
39 46 96 51 90 2 -2 -6 -50 -16 -108z m-1069 -177 c0 -16 -2 -16 -18 2 -11 11
-29 38 -42 60 l-22 40 41 -42 c23 -23 41 -50 41 -60z m140 -125 c6 -24 15 -59
21 -78 11 -45 12 -67 0 -54 -20 21 -55 174 -40 174 4 0 13 -19 19 -42z m1852
-108 c-122 -117 -472 -400 -472 -382 0 4 22 44 49 87 107 174 306 346 440 381
78 20 74 0 -17 -86z m-1545 -80 c9 -45 15 -134 15 -220 1 -126 -2 -152 -21
-201 -22 -57 -77 -149 -89 -149 -4 0 -4 132 -1 292 5 239 9 303 24 348 9 30
19 59 22 64 9 14 33 -53 50 -134z m-390 53 c-2 -16 -4 -5 -4 22 0 28 2 40 4
28 2 -13 2 -35 0 -50z m-332 -50 c89 -45 221 -131 273 -177 69 -63 226 -315
207 -334 -3 -3 -47 35 -98 85 -51 49 -137 129 -192 177 -55 48 -108 99 -119
112 l-18 25 28 -6 29 -6 -24 21 c-13 11 -54 37 -90 57 -157 85 -211 117 -211
125 0 11 131 -37 215 -79z m-2105 43 c140 -19 273 -50 398 -91 115 -39 282
-113 282 -126 0 -18 -63 -24 -255 -24 -168 0 -209 3 -255 18 -66 23 -501 215
-514 228 -15 14 225 11 344 -5z m3267 -358 c-7 -97 -83 -420 -86 -368 -1 25
48 358 59 400 18 67 34 49 27 -32z m239 -22 c-3 -36 -22 -142 -41 -237 -40
-196 -41 -211 -20 -203 17 7 18 3 9 -20 -3 -9 -12 -16 -20 -16 -14 0 -19 -15
-29 -92 -3 -27 -11 -48 -17 -48 -24 0 11 349 52 512 20 81 54 168 66 168 4 0
4 -29 0 -64z m-1926 -26 c61 -16 113 -44 190 -100 76 -56 203 -185 246 -250
89 -133 168 -310 179 -402 7 -52 5 -58 -11 -58 -26 0 -124 105 -124 133 0 60
-265 401 -459 591 -56 54 -101 101 -101 103 0 2 8 2 18 -1 9 -3 37 -10 62 -16z
m2410 -15 c-26 -69 -303 -445 -318 -431 -2 3 3 27 13 53 35 96 45 112 73 115
22 2 28 9 33 39 7 44 79 148 143 207 52 48 70 54 56 17z m-1677 -274 c126
-100 210 -184 289 -287 45 -59 73 -104 64 -104 -3 0 -48 36 -101 80 -134 111
-137 107 -16 -25 83 -91 153 -191 203 -289 21 -43 42 -76 44 -73 3 3 -2 32
-11 65 -24 85 -15 96 28 32 50 -77 69 -152 71 -283 1 -130 -9 -143 -53 -65
-17 29 -31 48 -31 41 0 -39 26 -122 46 -146 24 -29 31 -61 15 -71 -11 -7 -103
90 -125 132 -11 22 -16 57 -16 121 0 154 -36 234 -188 411 -45 52 -103 131
-130 176 -27 44 -85 132 -129 195 -93 134 -123 182 -123 198 0 18 28 0 163
-108z m994 -253 c-6 -286 -15 -356 -58 -439 -11 -23 -22 -39 -24 -37 -1 1 3
39 11 83 17 107 17 177 -1 201 -21 28 -18 85 10 204 14 58 33 140 42 183 9 42
18 77 21 77 3 0 2 -123 -1 -272z m1497 226 c61 -15 86 -29 86 -46 0 -7 -67 -8
-192 -3 -251 8 -271 14 -163 48 92 29 154 29 269 1z m-361 9 c-7 -2 -21 -2
-30 0 -10 3 -4 5 12 5 17 0 24 -2 18 -5z m-144 -36 c-69 -29 -156 -78 -278
-156 -52 -34 -99 -61 -105 -61 -19 0 98 110 167 157 69 48 167 82 237 82 34 1
33 0 -21 -22z m-1551 -39 c32 -86 85 -368 69 -368 -2 0 -13 31 -22 70 -10 40
-35 100 -60 141 -50 84 -61 126 -45 175 16 48 35 42 58 -18z m1662 12 c0 -5
-11 -10 -25 -10 -14 0 -25 5 -25 10 0 6 11 10 25 10 14 0 25 -4 25 -10z m508
-60 c102 -9 125 -20 120 -59 -5 -45 -64 -66 -185 -66 -57 0 -103 -3 -103 -7 0
-12 19 -19 68 -27 37 -6 43 -10 27 -16 -72 -28 -167 -80 -210 -115 -100 -81
-140 -107 -333 -220 -237 -139 -355 -218 -453 -302 l-74 -63 62 70 c33 39 75
83 92 99 31 29 39 46 23 46 -5 0 -60 -45 -122 -100 -61 -55 -114 -100 -116
-100 -12 0 4 28 77 140 120 184 202 258 415 379 93 52 124 61 124 39 1 -24 90
83 90 108 0 41 -35 49 -156 35 -184 -21 -316 -69 -466 -168 -37 -26 -70 -44
-73 -41 -7 7 61 103 94 131 17 14 50 28 73 32 57 8 95 23 143 55 49 33 98 50
142 50 26 0 35 5 43 24 11 31 91 62 192 74 97 12 390 14 506 2z m-3458 -39
c64 -16 136 -38 160 -50 l45 -21 -65 5 c-67 4 -290 61 -351 89 l-34 16 65 -5
c36 -3 117 -18 180 -34z m1718 -156 c-5 -72 -13 -134 -19 -140 -12 -11 -6 222
8 300 l7 40 6 -35 c3 -19 2 -93 -2 -165z m384 -17 c-22 -57 -51 -134 -66 -173
-35 -92 -49 -113 -42 -60 10 69 135 372 144 346 2 -6 -14 -57 -36 -113z m2209
52 c30 -6 79 -18 109 -27 l55 -17 -45 -7 c-59 -10 -469 -10 -494 0 -25 10 -13
18 63 42 64 21 226 25 312 9z m-795 -56 c-59 -41 -241 -124 -283 -131 -38 -6
-38 -6 -20 14 37 42 258 141 317 143 23 0 21 -2 -14 -26z m-806 -22 c0 -13
-35 -43 -150 -128 -127 -94 -243 -210 -289 -290 -66 -115 -121 -190 -185 -253
-36 -36 -68 -62 -71 -59 -16 16 64 134 253 373 166 211 266 304 365 341 70 26
77 27 77 16z m-1875 -78 c22 -37 60 -106 85 -155 25 -49 88 -153 141 -231 107
-159 173 -272 167 -289 -2 -6 -47 45 -99 113 -53 68 -141 174 -195 236 -182
208 -196 232 -158 263 13 11 15 26 11 71 -3 32 -2 58 2 58 4 0 25 -30 46 -66z
m3715 36 c0 -5 -18 -10 -41 -10 -46 0 -45 -14 3 -25 48 -10 15 -18 -45 -11
-53 7 -86 20 -76 31 18 17 159 31 159 15z m-3140 -97 c0 -20 -3 -24 -11 -16
-7 7 -9 19 -6 27 10 24 17 19 17 -11z m-745 -54 c-11 -16 -44 -10 -55 11 -18
33 -2 43 31 19 16 -11 27 -25 24 -30z m1688 17 c-16 -27 -176 -206 -181 -201
-6 6 58 86 127 158 57 59 68 67 54 43z m1370 -21 c96 -28 163 -58 217 -100
l35 -27 -95 5 c-52 4 -158 18 -235 32 -219 40 -294 69 -246 94 68 37 189 35
324 -4z m-1973 5 c0 -11 -4 -20 -10 -20 -5 0 -10 9 -10 20 0 11 5 20 10 20 6
0 10 -9 10 -20z m-1357 -11 c110 -23 200 -51 260 -81 40 -20 117 -85 117 -99
0 -22 -458 139 -521 183 l-24 17 33 0 c18 1 79 -8 135 -20z m-1130 -15 c266
-22 277 -32 37 -33 -168 -1 -220 -5 -288 -21 -46 -11 -88 -20 -93 -20 -15 0
41 78 59 83 33 9 107 7 285 -9z m2432 -98 c4 -48 3 -119 -4 -165 -14 -103 -80
-411 -92 -431 -12 -18 -3 164 16 332 17 147 55 348 65 348 5 0 11 -38 15 -84z
m-3459 30 c-16 -11 -51 -37 -78 -57 -27 -20 -106 -88 -176 -150 -69 -63 -157
-140 -195 -172 -82 -69 -205 -152 -213 -145 -10 11 97 128 198 218 107 95 267
211 400 291 79 48 122 58 64 15z m1650 -12 c116 -24 325 -97 312 -109 -2 -3
-38 7 -79 21 -94 32 -131 39 -312 59 -150 16 -206 28 -177 38 8 3 22 8 30 11
22 8 142 -2 226 -20z m-177 -160 c3 -4 1 -9 -5 -11 -6 -2 -107 -58 -225 -124
-393 -222 -423 -233 -719 -278 -212 -31 -284 -37 -278 -20 17 51 390 270 616
361 86 34 205 68 236 67 19 0 18 -1 -4 -11 -102 -45 -190 -90 -190 -99 0 -20
71 0 230 66 l155 64 89 -4 c48 -2 91 -7 95 -11z m816 -85 c115 -64 258 -160
263 -178 6 -19 -199 89 -322 170 -165 109 -131 113 59 8z m306 71 c26 -7 44
-22 63 -50 14 -22 32 -40 39 -40 18 0 66 -53 111 -120 52 -79 46 -94 -15 -39
-19 17 -59 48 -90 70 -60 40 -229 177 -229 185 0 8 85 4 121 -6z m1111 -93
c-22 -46 -45 -88 -52 -92 -20 -12 3 49 59 155 41 76 35 26 -7 -63z m-1614 42
c65 -22 86 -46 30 -34 -34 8 -108 42 -108 50 0 9 14 6 78 -16z m1572 11 c0 -6
-8 -25 -17 -43 -16 -29 -18 -30 -21 -10 -2 12 2 31 8 42 11 22 30 28 30 11z
m-1523 -142 c46 -17 80 -35 77 -39 -18 -29 -192 -55 -464 -69 -243 -12 -290
-12 -290 -1 0 33 494 157 570 144 14 -2 62 -18 107 -35z m1893 -25 c0 -10 -32
-43 -42 -43 -13 0 -9 17 8 34 16 16 34 21 34 9z m-181 -92 c-43 -58 -154 -189
-158 -186 -2 3 11 34 28 70 23 45 46 76 78 100 50 38 73 46 52 16z m-1324 -81
c-11 -18 -263 -115 -273 -106 -9 10 232 113 271 115 5 1 5 -4 2 -9z m570 -30
c31 -48 88 -178 106 -238 14 -48 5 -67 -18 -37 -44 58 -148 296 -136 309 13
12 23 5 48 -34z m720 -60 c-39 -64 -59 -77 -29 -18 24 47 55 90 61 84 3 -3
-12 -32 -32 -66z m-1009 9 c11 -18 -11 -31 -47 -27 l-34 3 30 17 c36 21 42 21
51 7z m139 -15 c97 -65 133 -125 48 -79 -30 15 -64 25 -90 25 -46 0 -46 1 -37
49 8 39 26 40 79 5z m2445 -84 c35 -18 60 -40 45 -40 -10 0 -105 50 -105 55 0
10 22 4 60 -15z m-2652 -12 c-7 -21 -36 -34 -49 -21 -6 6 -8 16 -5 22 10 15
59 14 54 -1z m182 -3 c7 -9 10 -19 6 -22 -8 -9 -38 9 -44 25 -5 17 23 15 38
-3z m650 -72 c50 -33 90 -77 90 -100 0 -25 -58 -87 -107 -115 l-31 -18 -27 65
c-16 36 -34 70 -42 76 -19 17 -16 38 13 76 29 38 64 43 104 16z m-890 -20 c0
-5 -9 -19 -20 -33 -38 -49 -10 -57 35 -10 16 17 46 35 68 41 68 18 207 -15
207 -50 0 -27 21 -41 61 -41 31 0 38 -4 43 -25 4 -14 1 -44 -6 -66 -9 -32 -9
-45 0 -60 17 -26 15 -44 -7 -88 -40 -77 -114 -123 -230 -142 -88 -15 -139 -1
-198 54 -99 91 -133 220 -81 308 38 65 129 144 128 112z m645 -342 c18 -7 17
-10 -15 -30 -19 -11 -38 -21 -42 -21 -16 0 -8 39 10 49 20 12 21 12 47 2z
m-817 -71 c27 -75 28 -175 2 -175 -11 0 -16 15 -20 57 -4 48 -11 63 -39 92
-34 35 -34 42 -3 79 23 27 35 16 60 -53z m691 18 c-34 -66 -125 -150 -192
-177 -32 -13 -60 -21 -64 -18 -11 12 7 37 27 37 50 0 148 78 209 168 32 46 45
40 20 -10z m2254 -174 c83 -242 139 -431 135 -451 -4 -21 -165 412 -188 506
-24 98 -34 171 -21 151 5 -8 38 -101 74 -206z m-1474 173 c51 -18 52 -37 2
-37 -44 0 -104 20 -115 39 -10 15 68 14 113 -2z m-523 -17 c23 -12 63 -43 88
-70 45 -48 46 -51 32 -78 -18 -34 -30 -114 -22 -140 4 -11 16 -22 26 -25 27
-7 25 -29 -6 -66 -31 -37 -36 -38 -78 -6 -40 30 -46 31 -81 4 l-27 -22 32 -13
c56 -24 26 -37 -69 -31 -203 12 -306 109 -245 230 18 36 53 77 66 77 4 0 19
-22 33 -49 13 -27 29 -52 35 -56 16 -10 11 23 -10 65 -23 45 -25 68 -6 93 18
23 33 22 70 -6 66 -50 96 -34 34 18 -52 43 -53 52 -11 74 49 26 86 26 139 1z
m-1076 -4 c0 -8 -36 -58 -80 -111 -44 -53 -80 -93 -80 -89 0 14 72 139 102
177 30 38 58 49 58 23z m1340 -100 c-13 -13 -35 7 -25 24 5 8 11 8 21 -1 10
-8 12 -15 4 -23z m-1540 -27 c0 -6 -19 -47 -41 -90 -42 -80 -69 -101 -69 -53
0 32 13 57 57 112 34 41 53 53 53 31z m1700 -38 c15 -29 13 -30 -27 -19 -50
13 -58 19 -42 29 24 15 58 10 69 -10z m-1071 -34 c15 -7 26 -21 26 -32 0 -17
-6 -20 -41 -17 -46 4 -119 -22 -109 -38 3 -5 17 -7 31 -4 45 11 25 -16 -41
-57 -117 -74 -75 -77 80 -7 120 55 118 52 113 115 -3 29 -2 53 2 53 9 0 66
-62 79 -87 18 -35 13 -43 -23 -43 -44 0 -69 -31 -96 -117 -21 -70 -20 -83 11
-83 11 0 22 -7 26 -16 17 -46 -68 -111 -160 -121 -110 -11 -226 50 -261 139
-16 39 -16 46 -1 110 21 86 53 134 85 130 27 -3 50 14 50 37 0 27 16 43 51 52
43 10 143 3 178 -14z m249 -9 c-5 -15 -33 -22 -54 -14 -24 9 -6 26 27 26 20 0
29 -4 27 -12z m-808 -67 c-11 -23 -25 -41 -31 -41 -10 0 0 23 29 68 24 36 25
18 2 -27z m-60 -9 c0 -5 -12 -19 -27 -33 l-26 -24 19 33 c17 30 34 42 34 24z
m-150 -137 c0 -18 -5 -25 -19 -25 -28 0 -37 -16 -81 -146 -60 -173 -223 -504
-250 -504 -38 0 241 617 299 660 14 11 31 24 36 29 14 14 15 14 15 -14z m1171
-145 c17 0 49 -40 49 -61 0 -12 14 -37 31 -57 28 -32 31 -40 25 -81 -3 -25
-20 -75 -38 -111 -62 -122 -155 -155 -279 -98 -78 36 -110 80 -119 166 -8 72
1 92 42 92 11 0 41 22 67 50 37 39 50 47 60 37 9 -9 17 -5 36 18 l24 30 1 -42
c0 -23 4 -44 9 -48 12 -7 31 26 31 55 0 33 19 62 37 56 8 -3 19 -6 24 -6z
m-1027 -447 c4 -4 12 -1 17 7 17 24 4 -69 -15 -115 -16 -37 -18 -39 -29 -20
-14 25 -16 387 -2 430 7 23 11 -8 15 -132 3 -89 9 -166 14 -170z m324 220 c3
-25 -2 -32 -27 -43 -16 -6 -35 -9 -40 -5 -12 7 -15 87 -5 98 4 3 20 0 38 -7
24 -9 32 -19 34 -43z m-281 -90 c-2 -21 -4 -4 -4 37 0 41 2 58 4 38 2 -21 2
-55 0 -75z m393 -78 c0 -8 -4 -17 -10 -20 -6 -4 -10 5 -10 20 0 15 4 24 10 20
6 -3 10 -12 10 -20z m852 10 c1 -15 -27 -29 -45 -22 -26 10 -9 39 20 35 13 -2
24 -7 25 -13z m3274 -172 c98 -173 154 -338 114 -338 -50 0 -261 408 -260 503
1 26 3 25 49 -25 26 -29 70 -92 97 -140z m-4256 142 c0 -14 -4 -25 -10 -25 -5
0 -10 11 -10 25 0 14 5 25 10 25 6 0 10 -11 10 -25z m970 -158 c20 -118 -5
-151 -60 -75 -39 53 -39 88 0 116 17 13 30 30 30 40 0 36 19 -13 30 -81z
m-1509 -150 c-8 -8 -11 -3 -11 19 1 25 2 27 11 11 8 -14 8 -22 0 -30z m1546
-98 c24 -75 30 -129 13 -129 -5 0 -10 -13 -10 -28 0 -15 -6 -34 -12 -41 -16
-15 -15 -248 1 -305 7 -29 7 -43 -1 -53 -7 -9 -7 -17 -1 -25 15 -19 23 -58 39
-187 20 -161 18 -245 -6 -314 -26 -72 -26 -128 -1 -158 22 -28 23 -26 40 65 6
33 18 70 26 83 26 39 38 17 33 -62 -4 -55 -10 -80 -26 -100 -17 -22 -22 -41
-22 -93 0 -57 -2 -63 -15 -52 -25 20 -36 0 -48 -84 -10 -71 -10 -77 11 -105
33 -45 31 -129 -4 -170 -31 -37 -49 -39 -59 -8 -9 29 -27 1324 -22 1547 4 162
22 309 35 295 3 -3 16 -37 29 -76z m73 -407 c0 -23 -4 -32 -12 -30 -9 3 -14
30 -15 79 l-2 74 14 -45 c8 -25 15 -60 15 -78z m70 26 c0 -21 -4 -38 -9 -38
-12 0 -25 76 -16 91 12 18 25 -11 25 -53z m-22 -404 c4 -61 -17 -48 -25 16 -5
34 -3 42 8 38 9 -3 15 -23 17 -54z m22 -619 c0 -14 -4 -25 -10 -25 -5 0 -10
11 -10 25 0 14 5 25 10 25 6 0 10 -11 10 -25z m-58 -495 c25 -25 29 -36 23
-58 -4 -15 -10 -63 -14 -107 l-6 -80 -23 30 c-19 24 -25 27 -32 15 -6 -8 -10
-21 -10 -28 0 -7 -12 -24 -26 -37 -31 -29 -27 -38 35 -69 26 -14 53 -32 61
-41 11 -14 10 -17 -9 -22 -20 -5 -21 -7 -6 -29 32 -49 5 -104 -51 -104 -12 0
-28 -7 -35 -16 -11 -14 -10 -19 10 -35 26 -21 40 -69 42 -149 l2 -55 8 69 c7
67 21 97 36 82 5 -4 8 -46 8 -93 0 -81 -1 -86 -27 -107 -30 -23 -37 -46 -15
-46 8 0 22 -10 33 -21 10 -12 29 -25 42 -30 30 -12 28 -28 -13 -88 -19 -28
-35 -60 -35 -71 0 -11 16 -34 35 -52 47 -42 44 -70 -7 -79 -40 -6 -68 -24 -68
-43 0 -7 11 -23 25 -36 18 -17 25 -34 25 -61 0 -34 3 -38 36 -46 21 -4 41 -15
47 -24 15 -24 0 -68 -26 -78 -35 -14 -49 -36 -45 -78 3 -35 6 -38 38 -43 50
-9 60 -17 60 -53 0 -24 -3 -28 -12 -19 -7 7 -22 12 -35 12 -13 0 -32 5 -43 12
-15 10 -23 9 -39 -6 -28 -25 -26 -39 8 -78 44 -51 53 -75 46 -118 -4 -26 -13
-40 -26 -43 -16 -4 -19 -14 -19 -65 0 -60 15 -122 30 -122 5 0 7 33 4 73 -5
62 -3 69 8 52 8 -13 13 -51 13 -103 0 -68 -4 -86 -18 -97 -23 -17 -105 -27
-125 -16 -10 5 -27 46 -41 93 l-24 83 2 955 c1 525 7 982 12 1015 10 68 26 85
77 85 24 0 42 -9 64 -30z m98 -201 c0 -12 -27 -11 -35 1 -11 17 5 32 21 19 8
-6 14 -15 14 -20z m-20 -471 c-1 -28 -2 -30 -11 -15 -6 10 -8 25 -5 33 9 24
16 16 16 -18z m-6 -1630 c8 -32 6 -209 -3 -232 -7 -19 -8 -19 -15 0 -11 30
-20 177 -12 218 8 41 21 47 30 14z m36 -548 c-6 -11 -15 -18 -20 -15 -9 6 -7
16 13 70 l12 30 3 -32 c2 -18 -2 -41 -8 -53z m48 -182 c13 -13 16 -57 4 -74
-4 -6 -33 -10 -66 -10 -55 1 -61 4 -78 31 -34 57 -27 65 55 65 43 0 78 -5 85
-12z m19 -405 c-5 -63 -25 -116 -38 -107 -13 7 -11 121 1 145 6 10 18 19 27
19 13 0 15 -9 10 -57z m-82 -90 c-3 -14 -10 -21 -17 -17 -11 7 -5 105 9 140
10 23 17 -88 8 -123z m26 -103 c25 -14 24 -36 -1 -43 -31 -8 -46 -52 -31 -90
24 -61 25 -67 3 -67 -11 0 -23 7 -26 16 -10 25 -7 140 4 168 10 28 21 31 51
16z m-381 -171 c0 -17 -4 -28 -10 -24 -5 3 -10 17 -10 31 0 13 5 24 10 24 6 0
10 -14 10 -31z m290 7 c0 -16 -18 -31 -27 -22 -8 8 5 36 17 36 5 0 10 -6 10
-14z m191 -259 c-17 -17 -25 21 -10 51 l13 27 4 -34 c2 -18 -1 -38 -7 -44z
m-124 -294 c-3 -10 -5 -4 -5 12 0 17 2 24 5 18 2 -7 2 -21 0 -30z m-48 -172
c24 -34 26 -56 7 -90 -17 -30 -11 -50 42 -165 39 -82 40 -86 21 -96 -23 -13
-25 -30 -4 -30 22 0 35 -42 35 -108 -1 -53 -2 -56 -16 -37 -8 11 -26 55 -40
99 -35 113 -40 119 -54 67 -15 -57 -34 -40 -35 32 0 45 3 52 20 53 40 2 45 4
45 19 0 8 -4 15 -9 15 -5 0 -16 19 -25 41 -13 32 -20 39 -29 30 -24 -24 -29
-9 -25 72 4 79 19 127 38 127 5 0 18 -13 29 -29z m199 -443 c4 -32 -4 -35 -30
-11 -25 23 -23 45 5 41 16 -2 23 -11 25 -30z m-169 -31 c16 -20 26 -77 13 -77
-8 0 -42 68 -42 85 0 10 18 5 29 -8z m597 -136 c-8 -13 -36 -15 -36 -3 0 4 5
13 12 20 14 14 34 0 24 -17z m-1078 -20 c-2 -9 -13 -17 -26 -19 -16 -3 -22 2
-22 16 0 11 6 22 13 25 20 7 38 -4 35 -22z m559 -23 c-2 -13 -4 -5 -4 17 -1
22 1 32 4 23 2 -10 2 -28 0 -40z m378 42 c3 -6 -4 -10 -17 -10 -18 0 -20 2 -8
10 19 12 18 12 25 0z m-285 -57 c0 -20 -3 -24 -11 -16 -7 7 -9 19 -6 27 10 24
17 19 17 -11z"/>
<path d="M6564 12179 c-92 -146 -214 -362 -208 -368 9 -9 41 36 114 159 94
161 163 290 157 296 -2 3 -31 -37 -63 -87z"/>
<path d="M4747 8863 c-4 -3 -7 -12 -7 -20 0 -16 46 -18 56 -2 11 19 -33 39
-49 22z"/>
<path d="M4975 8494 c4 -27 14 -65 23 -84 l16 -35 4 40 c3 46 -18 117 -38 123
-10 4 -11 -6 -5 -44z"/>
<path d="M4530 8236 c0 -20 39 -46 69 -46 22 0 20 3 -17 30 -48 34 -52 36 -52
16z"/>
<path d="M5067 7957 c-26 -65 -61 -104 -108 -118 -50 -16 -68 -35 -37 -41 83
-16 179 92 166 185 -2 17 -8 10 -21 -26z"/>
<path d="M6002 12308 l3 -153 -52 -130 c-93 -233 -113 -323 -134 -603 -16
-210 3 -217 37 -14 9 53 27 130 41 171 13 41 33 131 44 200 33 201 39 227 54
247 13 17 14 15 15 -24 0 -45 -53 -471 -70 -561 -14 -76 -14 -86 5 -71 8 7 29
57 45 111 17 55 40 114 50 132 25 42 38 158 49 427 5 118 14 227 20 243 10 26
-1 39 -14 17 -11 -18 -34 -11 -52 16 -10 16 -17 49 -18 82 -1 33 -7 58 -14 60
-9 3 -11 -34 -9 -150z"/>
<path d="M7362 12315 c-113 -21 -207 -52 -321 -109 -58 -29 -113 -51 -122 -49
-18 4 -69 -50 -69 -72 0 -25 21 -28 43 -6 13 11 67 42 122 70 210 103 342 133
600 135 138 1 215 -7 215 -23 0 -4 -78 -11 -172 -14 -139 -5 -193 -11 -271
-31 -145 -37 -368 -148 -345 -172 5 -4 32 4 60 19 74 36 204 75 311 92 105 17
521 21 575 6 17 -5 32 -6 32 -2 0 11 -68 57 -103 70 -41 16 -23 32 26 25 77
-10 176 -34 227 -54 58 -23 60 -23 60 -11 0 12 -100 55 -186 80 -195 57 -504
78 -682 46z"/>
<path d="M3981 11866 c-43 -46 -85 -232 -62 -275 7 -11 18 -21 26 -21 27 0 45
47 65 170 25 154 20 178 -29 126z"/>
<path d="M5912 11233 c-23 -34 -34 -63 -24 -63 5 0 18 20 30 45 25 51 22 58
-6 18z"/>
<path d="M2325 10983 c-265 -31 -415 -67 -415 -99 0 -18 11 -17 80 1 100 27
162 20 264 -27 88 -42 95 -43 206 -46 146 -5 348 14 422 39 75 25 96 24 170
-6 100 -41 140 -30 75 19 -68 52 -196 89 -387 111 -112 13 -336 18 -415 8z
m488 -72 c95 -23 59 -35 -118 -40 -224 -5 -418 20 -398 52 7 12 462 2 516 -12z"/>
<path d="M8069 9645 c107 -136 233 -346 217 -362 -10 -10 -205 187 -290 292
-87 107 -116 135 -116 113 0 -37 141 -224 305 -404 124 -135 149 -174 142
-219 -5 -33 4 -47 18 -25 3 5 15 15 25 20 16 9 24 5 47 -22 41 -48 84 -88 94
-88 20 0 6 33 -57 137 -36 59 -89 153 -116 208 -100 198 -264 415 -314 415 -3
0 17 -29 45 -65z"/>
<path d="M7560 8857 c0 -2 18 -42 39 -88 45 -97 94 -238 113 -324 l13 -60 3
84 c5 133 -33 232 -131 349 -21 24 -37 42 -37 39z"/>
<path d="M7660 8795 c0 -3 15 -25 34 -49 66 -87 130 -311 131 -461 0 -116 -18
-183 -66 -248 -46 -60 -50 -94 -15 -103 73 -18 140 98 166 286 14 105 6 205
-25 293 -48 140 -152 287 -201 287 -13 0 -24 -2 -24 -5z"/>
<path d="M8150 8581 c0 -5 64 -76 143 -158 164 -171 296 -331 332 -404 14 -27
41 -74 61 -104 75 -118 1 -53 -239 209 -116 126 -207 221 -203 211 20 -53 140
-238 215 -333 46 -59 151 -173 232 -253 l148 -146 73 -13 c40 -7 79 -15 86
-17 7 -3 12 3 12 14 0 13 -12 23 -37 32 -51 19 -153 120 -153 152 0 67 -192
381 -318 523 -82 91 -215 213 -287 262 -52 35 -65 40 -65 25z"/>
<path d="M7984 8375 c-15 -49 -11 -519 5 -600 21 -108 58 -220 114 -340 44
-97 50 -118 50 -175 0 -36 -3 -76 -7 -90 -7 -24 -7 -24 9 -5 23 29 113 216
117 243 2 12 8 22 13 20 6 -1 39 -74 75 -163 76 -184 180 -390 246 -481 37
-52 52 -65 86 -75 44 -11 92 -6 115 12 22 19 15 29 -24 29 -31 0 -44 8 -85 50
-54 56 -108 155 -108 199 0 21 -10 40 -35 63 -76 73 -285 569 -285 677 0 13
-16 41 -35 63 -20 21 -56 81 -82 133 -25 52 -50 95 -54 95 -4 0 -1 -26 7 -57
57 -226 93 -493 66 -493 -13 0 -64 141 -108 300 -38 135 -52 256 -55 445 -1
66 -5 134 -9 150 l-7 30 -9 -30z"/>
<path d="M7297 8029 c-14 -52 34 -321 85 -474 42 -129 188 -422 231 -464 29
-28 40 -32 65 -26 16 3 38 15 47 25 17 18 17 20 1 26 -9 4 -19 4 -23 1 -14
-15 -63 27 -101 85 -115 177 -247 538 -267 733 -9 84 -15 115 -25 115 -4 0
-10 -10 -13 -21z"/>
<path d="M7420 7846 c0 -24 69 -188 145 -341 68 -139 125 -219 142 -201 7 7
-10 41 -104 222 -27 50 -74 145 -106 212 -54 112 -77 144 -77 108z"/>
<path d="M4431 7102 c-13 -25 -15 -100 -2 -86 17 19 34 85 23 96 -7 7 -14 4
-21 -10z"/>
<path d="M5383 2955 c0 -27 2 -38 4 -22 2 15 2 37 0 50 -2 12 -4 0 -4 -28z"/>
<path d="M5198 1384 c-31 -162 -19 -295 33 -350 26 -28 39 -23 39 14 0 52 18
1 25 -73 9 -101 28 -178 44 -183 10 -3 12 1 8 19 -4 13 -16 93 -27 178 -23
168 -31 195 -60 186 -10 -3 -22 0 -27 7 -4 7 -10 76 -13 153 l-5 140 -17 -91z"/>
<path d="M5140 1105 c0 -14 5 -25 10 -25 6 0 10 11 10 25 0 14 -4 25 -10 25
-5 0 -10 -11 -10 -25z"/>
<path d="M5186 871 c-9 -14 4 -41 21 -41 9 0 13 8 11 22 -3 23 -23 35 -32 19z"/>
<path d="M5172 727 c-7 -7 -13 -29 -14 -48 -3 -28 1 -35 18 -37 11 -2 27 4 34
13 11 13 10 18 -4 34 -9 10 -14 25 -10 35 7 19 -9 21 -24 3z"/>
<path d="M5310 603 c1 -26 41 -186 50 -201 9 -13 10 1 6 58 -6 93 -22 150 -41
150 -8 0 -15 -3 -15 -7z"/>
<path d="M4140 331 c-36 -11 -112 -51 -132 -69 -29 -25 -22 -61 19 -100 78
-73 135 -90 173 -52 30 30 25 47 -20 70 -45 23 -60 45 -60 89 0 30 1 31 50 31
52 0 64 12 31 30 -22 11 -26 11 -61 1z"/>
<path d="M3653 293 c-35 -2 -63 -8 -63 -12 0 -5 21 -16 48 -26 61 -23 66 -28
51 -53 -12 -18 -10 -24 10 -46 21 -22 21 -25 5 -34 -61 -34 153 -102 229 -73
33 13 28 26 -16 45 l-32 14 30 11 c81 30 84 52 13 77 -37 13 -59 29 -73 51
-11 18 -27 34 -35 37 -28 8 -105 12 -167 9z"/>
</g>
</svg>
